<svg width="289" height="299" viewBox="0 0 289 299" fill="none" xmlns="http://www.w3.org/2000/svg">
<g clip-path="url(#clip0)">
<path d="M140.222 34C124.642 34 111.872 46.77 111.872 62.35C111.872 77.93 124.642 90.7 140.222 90.7C155.802 90.7 168.572 77.93 168.572 62.35C168.572 46.77 155.802 34 140.222 34Z" fill="#97CC53"/>
<path d="M168.562 62.35C168.562 77.93 155.792 90.7 140.212 90.7V34C155.802 34 168.562 46.77 168.562 62.35Z" fill="#79A245"/>
<path d="M140.222 37.43C126.472 37.43 115.312 48.59 115.312 62.34C115.312 76.09 126.472 87.25 140.222 87.25C153.972 87.25 165.132 76.1 165.132 62.35C165.132 48.6 153.972 37.43 140.222 37.43Z" fill="#D3F898"/>
<path d="M165.132 62.35C165.132 76.1 153.972 87.26 140.222 87.26V37.43C153.972 37.43 165.132 48.59 165.132 62.35Z" fill="#C4E48E"/>
<path d="M158.352 54.74C158.652 51.85 157.652 48.96 155.562 46.87C153.502 44.81 150.582 43.81 147.722 44.11C145.892 41.85 143.142 40.52 140.212 40.52C137.282 40.52 134.532 41.85 132.702 44.11C129.812 43.81 126.922 44.81 124.862 46.87C122.772 48.96 121.772 51.85 122.072 54.74C119.812 56.53 118.482 59.29 118.482 62.21C118.482 65.17 119.812 67.92 122.072 69.72C121.772 72.61 122.772 75.5 124.862 77.59C126.922 79.65 129.812 80.65 132.702 80.35C134.532 82.61 137.282 83.94 140.212 83.94C143.142 83.94 145.892 82.61 147.722 80.35C150.612 80.65 153.502 79.65 155.562 77.59C157.652 75.5 158.652 72.61 158.352 69.72C160.612 67.93 161.942 65.17 161.942 62.21C161.942 59.29 160.612 56.53 158.352 54.74Z" fill="#AFDB68"/>
<path d="M161.942 62.21C161.942 65.17 160.612 67.92 158.352 69.72C158.652 72.61 157.652 75.5 155.562 77.59C153.502 79.65 150.612 80.65 147.722 80.35C145.892 82.61 143.142 83.94 140.212 83.94V40.52C143.132 40.52 145.892 41.85 147.722 44.11C150.582 43.81 153.502 44.81 155.562 46.87C157.652 48.96 158.652 51.85 158.352 54.74C160.612 56.53 161.942 59.29 161.942 62.21Z" fill="#91C153"/>
<path d="M159.732 72.35L142.672 65.04L143.982 61.99L161.042 69.3L159.732 72.35Z" fill="#C3E48E"/>
<path d="M147.232 84.12L139.992 66.01L143.072 64.78L150.322 82.89L147.232 84.12Z" fill="#C3E48E"/>
<path d="M132.972 83.46L129.922 82.15L137.382 64.75L140.432 66.05L132.972 83.46Z" fill="#D3F898"/>
<path d="M120.742 71.86L119.512 68.77L136.492 61.98L137.722 65.06L120.742 71.86Z" fill="#D3F898"/>
<path d="M136.532 62.51L119.092 55.03L120.402 51.98L137.842 59.45L136.532 62.51Z" fill="#D3F898"/>
<path d="M137.442 59.88L130.082 41.49L133.172 40.25L140.522 58.65L137.442 59.88Z" fill="#D3F898"/>
<path d="M142.982 59.92L139.922 58.61L147.602 40.68L150.652 41.98L142.982 59.92Z" fill="#C3E48E"/>
<path d="M143.902 62.51L142.592 59.45L159.822 52.07L161.122 55.12L143.902 62.51Z" fill="#C3E48E"/>
<path d="M140.222 57.36C137.462 57.36 135.242 59.59 135.242 62.34C135.242 65.09 137.472 67.32 140.222 67.32C142.972 67.32 145.202 65.09 145.202 62.34C145.202 59.59 142.972 57.36 140.222 57.36Z" fill="#D3F898"/>
<path d="M145.202 62.35C145.202 65.11 142.972 67.33 140.222 67.33V57.36C142.972 57.36 145.202 59.59 145.202 62.35Z" fill="#C3E48E"/>
</g>
<g clip-path="url(#clip1)">
<path d="M139.35 120C123.77 120 111 132.77 111 148.35C111 163.93 123.77 176.7 139.35 176.7C154.93 176.7 167.7 163.93 167.7 148.35C167.7 132.77 154.93 120 139.35 120Z" fill="#97CC53"/>
<path d="M167.69 148.35C167.69 163.93 154.92 176.7 139.34 176.7V120C154.93 120 167.69 132.77 167.69 148.35Z" fill="#79A245"/>
<path d="M139.35 123.43C125.6 123.43 114.44 134.59 114.44 148.34C114.44 162.09 125.6 173.25 139.35 173.25C153.1 173.25 164.26 162.1 164.26 148.35C164.26 134.6 153.1 123.43 139.35 123.43Z" fill="#D3F898"/>
<path d="M164.26 148.35C164.26 162.1 153.1 173.26 139.35 173.26V123.43C153.1 123.43 164.26 134.59 164.26 148.35Z" fill="#C4E48E"/>
<path d="M157.48 140.74C157.78 137.85 156.78 134.96 154.69 132.87C152.63 130.81 149.71 129.81 146.85 130.11C145.02 127.85 142.27 126.52 139.34 126.52C136.41 126.52 133.66 127.85 131.83 130.11C128.94 129.81 126.05 130.81 123.99 132.87C121.9 134.96 120.9 137.85 121.2 140.74C118.94 142.53 117.61 145.29 117.61 148.21C117.61 151.17 118.94 153.92 121.2 155.72C120.9 158.61 121.9 161.5 123.99 163.59C126.05 165.65 128.94 166.65 131.83 166.35C133.66 168.61 136.41 169.94 139.34 169.94C142.27 169.94 145.02 168.61 146.85 166.35C149.74 166.65 152.63 165.65 154.69 163.59C156.78 161.5 157.78 158.61 157.48 155.72C159.74 153.93 161.07 151.17 161.07 148.21C161.07 145.29 159.74 142.53 157.48 140.74Z" fill="#AFDB68"/>
<path d="M161.07 148.21C161.07 151.17 159.74 153.92 157.48 155.72C157.78 158.61 156.78 161.5 154.69 163.59C152.63 165.65 149.74 166.65 146.85 166.35C145.02 168.61 142.27 169.94 139.34 169.94V126.52C142.26 126.52 145.02 127.85 146.85 130.11C149.71 129.81 152.63 130.81 154.69 132.87C156.78 134.96 157.78 137.85 157.48 140.74C159.74 142.53 161.07 145.29 161.07 148.21Z" fill="#91C153"/>
<path d="M158.86 158.35L141.8 151.04L143.11 147.99L160.17 155.3L158.86 158.35Z" fill="#C3E48E"/>
<path d="M146.36 170.12L139.12 152.01L142.2 150.78L149.45 168.89L146.36 170.12Z" fill="#C3E48E"/>
<path d="M132.1 169.46L129.05 168.15L136.51 150.75L139.56 152.05L132.1 169.46Z" fill="#D3F898"/>
<path d="M119.87 157.86L118.64 154.77L135.62 147.98L136.85 151.06L119.87 157.86Z" fill="#D3F898"/>
<path d="M135.66 148.51L118.22 141.03L119.53 137.98L136.97 145.45L135.66 148.51Z" fill="#D3F898"/>
<path d="M136.57 145.88L129.21 127.49L132.3 126.25L139.65 144.65L136.57 145.88Z" fill="#D3F898"/>
<path d="M142.11 145.92L139.05 144.61L146.73 126.68L149.78 127.98L142.11 145.92Z" fill="#C3E48E"/>
<path d="M143.03 148.51L141.72 145.45L158.95 138.07L160.25 141.12L143.03 148.51Z" fill="#C3E48E"/>
<path d="M139.35 143.36C136.59 143.36 134.37 145.59 134.37 148.34C134.37 151.09 136.6 153.32 139.35 153.32C142.1 153.32 144.33 151.09 144.33 148.34C144.33 145.59 142.1 143.36 139.35 143.36Z" fill="#D3F898"/>
<path d="M144.33 148.35C144.33 151.11 142.1 153.33 139.35 153.33V143.36C142.1 143.36 144.33 145.59 144.33 148.35Z" fill="#C3E48E"/>
</g>
<g clip-path="url(#clip2)">
<path d="M54.35 120C38.77 120 26 132.77 26 148.35C26 163.93 38.77 176.7 54.35 176.7C69.93 176.7 82.7 163.93 82.7 148.35C82.7 132.77 69.93 120 54.35 120Z" fill="#97CC53"/>
<path d="M82.69 148.35C82.69 163.93 69.92 176.7 54.34 176.7V120C69.93 120 82.69 132.77 82.69 148.35Z" fill="#79A245"/>
<path d="M54.35 123.43C40.6 123.43 29.44 134.59 29.44 148.34C29.44 162.09 40.6 173.25 54.35 173.25C68.1 173.25 79.26 162.1 79.26 148.35C79.26 134.6 68.1 123.43 54.35 123.43Z" fill="#D3F898"/>
<path d="M79.26 148.35C79.26 162.1 68.1 173.26 54.35 173.26V123.43C68.1 123.43 79.26 134.59 79.26 148.35Z" fill="#C4E48E"/>
<path d="M72.48 140.74C72.78 137.85 71.78 134.96 69.69 132.87C67.63 130.81 64.71 129.81 61.85 130.11C60.02 127.85 57.27 126.52 54.34 126.52C51.41 126.52 48.66 127.85 46.83 130.11C43.94 129.81 41.05 130.81 38.99 132.87C36.9 134.96 35.9 137.85 36.2 140.74C33.94 142.53 32.61 145.29 32.61 148.21C32.61 151.17 33.94 153.92 36.2 155.72C35.9 158.61 36.9 161.5 38.99 163.59C41.05 165.65 43.94 166.65 46.83 166.35C48.66 168.61 51.41 169.94 54.34 169.94C57.27 169.94 60.02 168.61 61.85 166.35C64.74 166.65 67.63 165.65 69.69 163.59C71.78 161.5 72.78 158.61 72.48 155.72C74.74 153.93 76.07 151.17 76.07 148.21C76.07 145.29 74.74 142.53 72.48 140.74Z" fill="#AFDB68"/>
<path d="M76.07 148.21C76.07 151.17 74.74 153.92 72.48 155.72C72.78 158.61 71.78 161.5 69.69 163.59C67.63 165.65 64.74 166.65 61.85 166.35C60.02 168.61 57.27 169.94 54.34 169.94V126.52C57.26 126.52 60.02 127.85 61.85 130.11C64.71 129.81 67.63 130.81 69.69 132.87C71.78 134.96 72.78 137.85 72.48 140.74C74.74 142.53 76.07 145.29 76.07 148.21Z" fill="#91C153"/>
<path d="M73.86 158.35L56.8 151.04L58.11 147.99L75.17 155.3L73.86 158.35Z" fill="#C3E48E"/>
<path d="M61.36 170.12L54.12 152.01L57.2 150.78L64.45 168.89L61.36 170.12Z" fill="#C3E48E"/>
<path d="M47.1 169.46L44.05 168.15L51.51 150.75L54.56 152.05L47.1 169.46Z" fill="#D3F898"/>
<path d="M34.87 157.86L33.64 154.77L50.62 147.98L51.85 151.06L34.87 157.86Z" fill="#D3F898"/>
<path d="M50.66 148.51L33.22 141.03L34.53 137.98L51.97 145.45L50.66 148.51Z" fill="#D3F898"/>
<path d="M51.57 145.88L44.21 127.49L47.3 126.25L54.65 144.65L51.57 145.88Z" fill="#D3F898"/>
<path d="M57.11 145.92L54.05 144.61L61.73 126.68L64.78 127.98L57.11 145.92Z" fill="#C3E48E"/>
<path d="M58.03 148.51L56.72 145.45L73.95 138.07L75.25 141.12L58.03 148.51Z" fill="#C3E48E"/>
<path d="M54.35 143.36C51.59 143.36 49.37 145.59 49.37 148.34C49.37 151.09 51.6 153.32 54.35 153.32C57.1 153.32 59.33 151.09 59.33 148.34C59.33 145.59 57.1 143.36 54.35 143.36Z" fill="#D3F898"/>
<path d="M59.33 148.35C59.33 151.11 57.1 153.33 54.35 153.33V143.36C57.1 143.36 59.33 145.59 59.33 148.35Z" fill="#C3E48E"/>
</g>
<g clip-path="url(#clip3)">
<path d="M224.35 206C208.77 206 196 218.77 196 234.35C196 249.93 208.77 262.7 224.35 262.7C239.93 262.7 252.7 249.93 252.7 234.35C252.7 218.77 239.93 206 224.35 206Z" fill="#97CC53"/>
<path d="M252.69 234.35C252.69 249.93 239.92 262.7 224.34 262.7V206C239.93 206 252.69 218.77 252.69 234.35Z" fill="#79A245"/>
<path d="M224.35 209.43C210.6 209.43 199.44 220.59 199.44 234.34C199.44 248.09 210.6 259.25 224.35 259.25C238.1 259.25 249.26 248.1 249.26 234.35C249.26 220.6 238.1 209.43 224.35 209.43Z" fill="#D3F898"/>
<path d="M249.26 234.35C249.26 248.1 238.1 259.26 224.35 259.26V209.43C238.1 209.43 249.26 220.59 249.26 234.35Z" fill="#C4E48E"/>
<path d="M242.48 226.74C242.78 223.85 241.78 220.96 239.69 218.87C237.63 216.81 234.71 215.81 231.85 216.11C230.02 213.85 227.27 212.52 224.34 212.52C221.41 212.52 218.66 213.85 216.83 216.11C213.94 215.81 211.05 216.81 208.99 218.87C206.9 220.96 205.9 223.85 206.2 226.74C203.94 228.53 202.61 231.29 202.61 234.21C202.61 237.17 203.94 239.92 206.2 241.72C205.9 244.61 206.9 247.5 208.99 249.59C211.05 251.65 213.94 252.65 216.83 252.35C218.66 254.61 221.41 255.94 224.34 255.94C227.27 255.94 230.02 254.61 231.85 252.35C234.74 252.65 237.63 251.65 239.69 249.59C241.78 247.5 242.78 244.61 242.48 241.72C244.74 239.93 246.07 237.17 246.07 234.21C246.07 231.29 244.74 228.53 242.48 226.74Z" fill="#AFDB68"/>
<path d="M246.07 234.21C246.07 237.17 244.74 239.92 242.48 241.72C242.78 244.61 241.78 247.5 239.69 249.59C237.63 251.65 234.74 252.65 231.85 252.35C230.02 254.61 227.27 255.94 224.34 255.94V212.52C227.26 212.52 230.02 213.85 231.85 216.11C234.71 215.81 237.63 216.81 239.69 218.87C241.78 220.96 242.78 223.85 242.48 226.74C244.74 228.53 246.07 231.29 246.07 234.21Z" fill="#91C153"/>
<path d="M243.86 244.35L226.8 237.04L228.11 233.99L245.17 241.3L243.86 244.35Z" fill="#C3E48E"/>
<path d="M231.36 256.12L224.12 238.01L227.2 236.78L234.45 254.89L231.36 256.12Z" fill="#C3E48E"/>
<path d="M217.1 255.46L214.05 254.15L221.51 236.75L224.56 238.05L217.1 255.46Z" fill="#D3F898"/>
<path d="M204.87 243.86L203.64 240.77L220.62 233.98L221.85 237.06L204.87 243.86Z" fill="#D3F898"/>
<path d="M220.66 234.51L203.22 227.03L204.53 223.98L221.97 231.45L220.66 234.51Z" fill="#D3F898"/>
<path d="M221.57 231.88L214.21 213.49L217.3 212.25L224.65 230.65L221.57 231.88Z" fill="#D3F898"/>
<path d="M227.11 231.92L224.05 230.61L231.73 212.68L234.78 213.98L227.11 231.92Z" fill="#C3E48E"/>
<path d="M228.03 234.51L226.72 231.45L243.95 224.07L245.25 227.12L228.03 234.51Z" fill="#C3E48E"/>
<path d="M224.35 229.36C221.59 229.36 219.37 231.59 219.37 234.34C219.37 237.09 221.6 239.32 224.35 239.32C227.1 239.32 229.33 237.09 229.33 234.34C229.33 231.59 227.1 229.36 224.35 229.36Z" fill="#D3F898"/>
<path d="M229.33 234.35C229.33 237.11 227.1 239.33 224.35 239.33V229.36C227.1 229.36 229.33 231.59 229.33 234.35Z" fill="#C3E48E"/>
</g>
<g clip-path="url(#clip4)">
<path d="M251.922 126.16C250.942 123.61 248.922 121.6 246.362 120.65C241.632 118.88 236.262 121 233.852 125.58C226.652 139.28 215.132 150.78 201.422 157.97C196.842 160.37 194.722 165.74 196.482 170.46C197.442 173.02 199.452 175.04 202.002 176.02C203.122 176.45 204.302 176.66 205.492 176.66C207.092 176.66 208.702 176.27 210.172 175.5C218.892 170.95 226.882 165.07 233.922 158.04C240.962 151.01 246.842 143.02 251.402 134.31C252.742 131.77 252.932 128.79 251.922 126.16Z" fill="#F37235"/>
<path d="M233.752 158.23C233.812 158.17 233.872 158.11 233.932 158.05C240.972 151.02 246.852 143.03 251.412 134.32C252.752 131.77 252.932 128.79 251.922 126.16C250.942 123.61 248.922 121.6 246.362 120.65C241.632 118.88 236.262 121 233.852 125.58C230.212 132.5 225.472 138.86 219.902 144.39L233.752 158.23Z" fill="#F04F23"/>
<path d="M227.442 143.09L227.302 146.45L218.152 146.08C219.272 145.04 220.362 143.96 221.422 142.85L227.442 143.09Z" fill="#ED202B"/>
<path d="M221.742 146.22L227.302 146.45L227.442 143.09L221.422 142.85C220.922 143.37 220.422 143.89 219.912 144.39L221.742 146.22Z" fill="#C22026"/>
<path d="M216.412 153.35L216.182 156.7L205.062 155.93C206.662 154.97 208.232 153.96 209.752 152.88L216.412 153.35Z" fill="#ED202B"/>
<path d="M236.522 131.55L236.352 134.91L228.342 134.5C229.102 133.43 229.842 132.35 230.552 131.25L236.522 131.55Z" fill="#C22026"/>
<path d="M246.382 176.06C248.932 175.09 250.952 173.07 251.912 170.51C253.682 165.79 251.572 160.42 246.992 158.01C233.292 150.8 221.792 139.28 214.612 125.57C212.212 120.99 206.842 118.86 202.112 120.62C199.552 121.57 197.522 123.57 196.542 126.12C196.112 127.24 195.892 128.42 195.892 129.6C195.892 131.2 196.272 132.81 197.042 134.28C201.582 143 207.452 150.99 214.482 158.04C221.512 165.09 229.492 170.97 238.202 175.53C240.762 176.87 243.742 177.06 246.382 176.06Z" fill="#F37235"/>
<path d="M214.312 157.86C214.372 157.92 214.432 157.98 214.492 158.04C221.522 165.08 229.502 170.97 238.212 175.53C240.762 176.87 243.742 177.06 246.382 176.06C248.932 175.09 250.952 173.07 251.912 170.51C253.682 165.79 251.572 160.42 246.992 158.01C240.072 154.36 233.712 149.62 228.182 144.05L214.312 157.86Z" fill="#F04F23"/>
<path d="M229.462 151.57L226.102 151.43L226.492 142.29C227.532 143.41 228.612 144.5 229.722 145.56L229.462 151.57Z" fill="#ED202B"/>
<path d="M226.342 145.87L226.112 151.43L229.472 151.57L229.722 145.56C229.202 145.06 228.682 144.56 228.182 144.05L226.342 145.87Z" fill="#C22026"/>
<path d="M219.222 140.54L215.862 140.3L216.642 129.2C217.592 130.8 218.612 132.37 219.682 133.89L219.222 140.54Z" fill="#ED202B"/>
<path d="M241.002 160.67L237.642 160.49L238.062 152.48C239.132 153.25 240.212 153.98 241.312 154.69L241.002 160.67Z" fill="#C22026"/>
</g>
<g clip-path="url(#clip5)">
<path d="M167.922 212.16C166.942 209.61 164.922 207.6 162.362 206.65C157.632 204.88 152.262 207 149.852 211.58C142.652 225.28 131.132 236.78 117.422 243.97C112.842 246.37 110.722 251.74 112.482 256.46C113.442 259.02 115.452 261.04 118.002 262.02C119.122 262.45 120.302 262.66 121.492 262.66C123.092 262.66 124.702 262.27 126.172 261.5C134.892 256.95 142.882 251.07 149.922 244.04C156.962 237.01 162.842 229.02 167.402 220.31C168.742 217.77 168.932 214.79 167.922 212.16Z" fill="#F37235"/>
<path d="M149.752 244.23C149.812 244.17 149.872 244.11 149.932 244.05C156.972 237.02 162.852 229.03 167.412 220.32C168.752 217.77 168.932 214.79 167.922 212.16C166.942 209.61 164.922 207.6 162.362 206.65C157.632 204.88 152.262 207 149.852 211.58C146.212 218.5 141.472 224.86 135.902 230.39L149.752 244.23Z" fill="#F04F23"/>
<path d="M143.442 229.09L143.302 232.45L134.152 232.08C135.272 231.04 136.362 229.96 137.422 228.85L143.442 229.09Z" fill="#ED202B"/>
<path d="M137.742 232.22L143.302 232.45L143.442 229.09L137.422 228.85C136.922 229.37 136.422 229.89 135.912 230.39L137.742 232.22Z" fill="#C22026"/>
<path d="M132.412 239.35L132.182 242.7L121.062 241.93C122.662 240.97 124.232 239.96 125.752 238.88L132.412 239.35Z" fill="#ED202B"/>
<path d="M152.522 217.55L152.352 220.91L144.342 220.5C145.102 219.43 145.842 218.35 146.552 217.25L152.522 217.55Z" fill="#C22026"/>
<path d="M162.382 262.06C164.932 261.09 166.952 259.07 167.912 256.51C169.682 251.79 167.572 246.42 162.992 244.01C149.292 236.8 137.792 225.28 130.612 211.57C128.212 206.99 122.842 204.86 118.112 206.62C115.552 207.57 113.522 209.57 112.542 212.12C112.112 213.24 111.892 214.42 111.892 215.6C111.892 217.2 112.272 218.81 113.042 220.28C117.582 229 123.452 236.99 130.482 244.04C137.512 251.09 145.492 256.97 154.202 261.53C156.762 262.87 159.742 263.06 162.382 262.06Z" fill="#F37235"/>
<path d="M130.312 243.86C130.372 243.92 130.432 243.98 130.492 244.04C137.522 251.08 145.502 256.97 154.212 261.53C156.762 262.87 159.742 263.06 162.382 262.06C164.932 261.09 166.952 259.07 167.912 256.51C169.682 251.79 167.572 246.42 162.992 244.01C156.072 240.36 149.712 235.62 144.182 230.05L130.312 243.86Z" fill="#F04F23"/>
<path d="M145.462 237.57L142.102 237.43L142.492 228.29C143.532 229.41 144.612 230.5 145.722 231.56L145.462 237.57Z" fill="#ED202B"/>
<path d="M142.342 231.87L142.112 237.43L145.472 237.57L145.722 231.56C145.202 231.06 144.682 230.56 144.182 230.05L142.342 231.87Z" fill="#C22026"/>
<path d="M135.222 226.54L131.862 226.3L132.642 215.2C133.592 216.8 134.612 218.37 135.682 219.89L135.222 226.54Z" fill="#ED202B"/>
<path d="M157.002 246.67L153.642 246.49L154.062 238.48C155.132 239.25 156.212 239.98 157.312 240.69L157.002 246.67Z" fill="#C22026"/>
</g>
<g clip-path="url(#clip6)">
<path d="M81.9222 39.16C80.9422 36.61 78.9223 34.6 76.3622 33.65C71.6322 31.88 66.2622 34 63.8522 38.58C56.6522 52.28 45.1322 63.78 31.4222 70.97C26.8422 73.37 24.7222 78.74 26.4822 83.46C27.4422 86.02 29.4522 88.04 32.0022 89.02C33.1222 89.45 34.3022 89.66 35.4922 89.66C37.0922 89.66 38.7022 89.27 40.1722 88.5C48.8923 83.95 56.8822 78.07 63.9222 71.04C70.9622 64.01 76.8422 56.02 81.4022 47.31C82.7422 44.77 82.9322 41.79 81.9222 39.16Z" fill="#F37235"/>
<path d="M63.7523 71.23C63.8123 71.17 63.8723 71.11 63.9323 71.05C70.9723 64.02 76.8523 56.03 81.4123 47.32C82.7523 44.77 82.9322 41.79 81.9222 39.16C80.9422 36.61 78.9223 34.6 76.3623 33.65C71.6323 31.88 66.2623 34 63.8523 38.58C60.2123 45.5 55.4723 51.86 49.9023 57.39L63.7523 71.23Z" fill="#F04F23"/>
<path d="M57.4423 56.09L57.3023 59.45L48.1523 59.08C49.2723 58.04 50.3623 56.96 51.4223 55.85L57.4423 56.09Z" fill="#ED202B"/>
<path d="M51.7423 59.22L57.3022 59.45L57.4422 56.09L51.4222 55.85C50.9222 56.37 50.4223 56.89 49.9123 57.39L51.7423 59.22Z" fill="#C22026"/>
<path d="M46.4122 66.35L46.1822 69.7L35.0622 68.93C36.6622 67.97 38.2322 66.96 39.7522 65.88L46.4122 66.35Z" fill="#ED202B"/>
<path d="M66.5222 44.55L66.3522 47.91L58.3422 47.5C59.1022 46.43 59.8422 45.35 60.5522 44.25L66.5222 44.55Z" fill="#C22026"/>
<path d="M76.3822 89.06C78.9322 88.09 80.9523 86.07 81.9122 83.51C83.6823 78.79 81.5722 73.42 76.9922 71.01C63.2922 63.8 51.7922 52.28 44.6122 38.57C42.2122 33.99 36.8422 31.86 32.1122 33.62C29.5522 34.57 27.5222 36.57 26.5422 39.12C26.1122 40.24 25.8922 41.42 25.8922 42.6C25.8922 44.2 26.2722 45.81 27.0422 47.28C31.5822 56 37.4522 63.99 44.4822 71.04C51.5122 78.09 59.4923 83.97 68.2023 88.53C70.7623 89.87 73.7422 90.06 76.3822 89.06Z" fill="#F37235"/>
<path d="M44.3122 70.86C44.3722 70.92 44.4322 70.98 44.4922 71.04C51.5222 78.08 59.5022 83.97 68.2122 88.53C70.7622 89.87 73.7422 90.06 76.3822 89.06C78.9322 88.09 80.9522 86.07 81.9122 83.51C83.6822 78.79 81.5723 73.42 76.9922 71.01C70.0722 67.36 63.7122 62.62 58.1822 57.05L44.3122 70.86Z" fill="#F04F23"/>
<path d="M59.4622 64.57L56.1022 64.43L56.4923 55.29C57.5323 56.41 58.6122 57.5 59.7222 58.56L59.4622 64.57Z" fill="#ED202B"/>
<path d="M56.3422 58.87L56.1122 64.43L59.4722 64.57L59.7222 58.56C59.2022 58.06 58.6822 57.56 58.1822 57.05L56.3422 58.87Z" fill="#C22026"/>
<path d="M49.2222 53.54L45.8622 53.3L46.6422 42.2C47.5922 43.8 48.6122 45.37 49.6822 46.89L49.2222 53.54Z" fill="#ED202B"/>
<path d="M71.0023 73.67L67.6423 73.49L68.0622 65.48C69.1322 66.25 70.2122 66.98 71.3122 67.69L71.0023 73.67Z" fill="#C22026"/>
</g>
<g clip-path="url(#clip7)">
<path d="M97.3723 23.1955V274.804" stroke="#BBDCEA" stroke-opacity="0.64" stroke-width="5" stroke-miterlimit="10" stroke-linecap="round"/>
</g>
<g clip-path="url(#clip8)">
<path d="M267.215 105.829L19.1768 104.596" stroke="#BBDCEA" stroke-opacity="0.64" stroke-width="5" stroke-miterlimit="10" stroke-linecap="round"/>
</g>
<g clip-path="url(#clip9)">
<path d="M267.221 191.938L19.6332 190.707" stroke="#BBDCEA" stroke-opacity="0.64" stroke-width="5" stroke-miterlimit="10" stroke-linecap="round"/>
</g>
<g clip-path="url(#clip10)">
<path d="M182.372 22.2041V274.796" stroke="#BBDCEA" stroke-opacity="0.64" stroke-width="5" stroke-miterlimit="10" stroke-linecap="round"/>
</g>
<defs>
<clipPath id="clip0">
<rect width="56.69" height="56.69" fill="white" transform="translate(111.872 34)"/>
</clipPath>
<clipPath id="clip1">
<rect width="56.69" height="56.69" fill="white" transform="translate(111 120)"/>
</clipPath>
<clipPath id="clip2">
<rect width="56.69" height="56.69" fill="white" transform="translate(26 120)"/>
</clipPath>
<clipPath id="clip3">
<rect width="56.69" height="56.69" fill="white" transform="translate(196 206)"/>
</clipPath>
<clipPath id="clip4">
<rect width="56.69" height="56.69" fill="white" transform="translate(195.872 120)"/>
</clipPath>
<clipPath id="clip5">
<rect width="56.69" height="56.69" fill="white" transform="translate(111.872 206)"/>
</clipPath>
<clipPath id="clip6">
<rect width="56.69" height="56.69" fill="white" transform="translate(25.8722 33)"/>
</clipPath>
<clipPath id="clip7">
<rect width="5" height="256" fill="white" transform="translate(94.8723 21)"/>
</clipPath>
<clipPath id="clip8">
<rect width="5" height="252.37" fill="white" transform="translate(269.392 103.34) rotate(90.2848)"/>
</clipPath>
<clipPath id="clip9">
<rect width="5" height="251.911" fill="white" transform="translate(269.394 189.449) rotate(90.2848)"/>
</clipPath>
<clipPath id="clip10">
<rect width="5" height="257" fill="white" transform="translate(179.872 20)"/>
</clipPath>
</defs>
</svg>
