<svg xmlns="http://www.w3.org/2000/svg"
    xmlns:xlink="http://www.w3.org/1999/xlink" viewBox="0 0 56.7 56.7">
    <defs>
        <style>.cls-1{fill:none;}.cls-2{clip-path:url(#clip-path);}.cls-3{fill:#97cc53;}.cls-4{fill:#79a245;}.cls-5{fill:#d3f898;}.cls-6{fill:#c4e48e;}.cls-7{fill:#afdb68;}.cls-8{fill:#91c153;}.cls-9{fill:#c3e48e;}</style>
        <clipPath id="clip-path">
            <rect class="cls-1" width="56.69" height="56.69"/>
        </clipPath>
    </defs>
    <g id="Layer_2" data-name="Layer 2">
        <g id="Layer_1-2" data-name="Layer 1">
            <g class="cls-2">
                <path class="cls-3" d="M28.35,0A28.35,28.35,0,1,0,56.7,28.35,28.45,28.45,0,0,0,28.35,0Z"/>
                <path class="cls-4" d="M56.69,28.35A28.45,28.45,0,0,1,28.34,56.7V0A28.44,28.44,0,0,1,56.69,28.35Z"/>
                <path class="cls-5" d="M28.35,3.43A24.91,24.91,0,1,0,53.26,28.35,24.92,24.92,0,0,0,28.35,3.43Z"/>
                <path class="cls-6" d="M53.26,28.35A24.92,24.92,0,0,1,28.35,53.26V3.43A24.92,24.92,0,0,1,53.26,28.35Z"/>
                <path class="cls-7" d="M46.48,20.74A9.66,9.66,0,0,0,35.85,10.11a9.65,9.65,0,0,0-15,0A9.66,9.66,0,0,0,10.2,20.74a9.61,9.61,0,0,0,0,15A9.66,9.66,0,0,0,20.83,46.35a9.65,9.65,0,0,0,15,0A9.66,9.66,0,0,0,46.48,35.72a9.61,9.61,0,0,0,0-15Z"/>
                <path class="cls-8" d="M50.07,28.21a9.57,9.57,0,0,1-3.59,7.51A9.66,9.66,0,0,1,35.85,46.35a9.66,9.66,0,0,1-7.51,3.59V6.52a9.68,9.68,0,0,1,7.51,3.59A9.66,9.66,0,0,1,46.48,20.74,9.54,9.54,0,0,1,50.07,28.21Z"/>
                <path class="cls-9" d="M47.86,38.35,30.8,31,32.11,28,49.17,35.3Z"/>
                <path class="cls-9" d="M35.36,50.12,28.12,32l3.08-1.23,7.25,18.11Z"/>
                <path class="cls-5" d="M21.1,49.46l-3.05-1.31,7.46-17.4,3,1.3Z"/>
                <path class="cls-5" d="M8.87,37.86,7.64,34.77l17-6.79,1.23,3.08Z"/>
                <path class="cls-5" d="M24.66,28.51,7.22,21,8.53,18,26,25.45Z"/>
                <path class="cls-5" d="M25.57,25.88,18.21,7.49,21.3,6.25l7.35,18.4Z"/>
                <path class="cls-9" d="M31.11,25.92l-3.06-1.31L35.73,6.68,38.78,8Z"/>
                <path class="cls-9" d="M32,28.51l-1.31-3.06L48,18.07l1.3,3.05Z"/>
                <path class="cls-5" d="M28.35,23.36a5,5,0,1,0,5,5A5,5,0,0,0,28.35,23.36Z"/>
                <path class="cls-9" d="M33.33,28.35a5,5,0,0,1-5,5v-10A5,5,0,0,1,33.33,28.35Z"/>
            </g>
        </g>
    </g>
</svg>