<?xml version="1.0" encoding="utf-8"?>
<!-- Generator: Adobe Illustrator 24.3.0, SVG Export Plug-In . SVG Version: 6.00 Build 0)  -->
<svg version="1.1" id="Capa_1" xmlns="http://www.w3.org/2000/svg" xmlns:xlink="http://www.w3.org/1999/xlink" x="0px" y="0px"
	 viewBox="0 0 512 512" style="enable-background:new 0 0 512 512;" xml:space="preserve">
<style type="text/css">
	.st0{fill:#FF712F;}
	.st1{fill:#FF4B00;}
	.st2{fill:#FF001E;}
	.st3{fill:#C30010;}
</style>
<g>
	<g id="XMLID_867_">
		<path id="XMLID_313_" class="st0" d="M506.2,55.4c-8.8-23-27.1-41.2-50.2-49.8c-42.7-16-91.2,3.2-112.9,44.6
			C278,174,174,278,50.2,343C8.8,364.8-10.4,413.3,5.6,456c8.6,23.1,26.8,41.4,49.8,50.2c10.1,3.9,20.8,5.8,31.5,5.8
			c14.5,0,29-3.5,42.3-10.4c78.7-41.1,150.9-94.3,214.5-157.8S460.4,208,501.6,129.2C513.6,106.1,515.3,79.2,506.2,55.4L506.2,55.4z
			"/>
		<path id="XMLID_725_" class="st1" d="M342.1,345.3c0.5-0.5,1.1-1.1,1.6-1.6c63.6-63.6,116.7-135.8,157.8-214.5
			c12.1-23.1,13.8-50,4.6-73.8c-8.8-23-27.1-41.2-50.2-49.8c-42.7-16-91.2,3.2-112.9,44.6c-32.9,62.6-75.7,120.1-126,170.1
			L342.1,345.3z"/>
		<path id="XMLID_366_" class="st2" d="M285.1,208.5l-1.2,30.4l-82.6-3.4c10.1-9.4,20-19.2,29.5-29.2L285.1,208.5z"/>
		<path id="XMLID_631_" class="st3" d="M233.6,236.8l50.2,2l1.2-30.4l-54.4-2.2c-4.5,4.7-9,9.4-13.7,14L233.6,236.8z"/>
		<path id="XMLID_349_" class="st2" d="M185.5,301.2l-2.1,30.3L83,324.6c14.5-8.6,28.6-17.8,42.4-27.5L185.5,301.2z"/>
		<path id="XMLID_351_" class="st3" d="M367.1,104.2l-1.5,30.3l-72.4-3.7c6.9-9.6,13.6-19.4,20-29.4L367.1,104.2z"/>
	</g>
	<g id="XMLID_1_">
		<path id="XMLID_7_" class="st0" d="M456.1,506.5c23-8.8,41.2-27.1,49.9-50.2c16-42.6-3.1-91.2-44.4-113
			C337.9,278.1,234,174,169.2,50.1C147.5,8.6,99-10.6,56.3,5.3C33.2,13.9,14.9,32.1,6,55.1C2.1,65.2,0.2,75.9,0.2,86.6
			c0,14.5,3.5,29,10.4,42.3c41,78.8,94,151,157.5,214.7s135.6,116.9,214.3,158.2C405.4,513.8,432.3,515.6,456.1,506.5L456.1,506.5z"
			/>
		<path id="XMLID_6_" class="st1" d="M166.5,342c0.5,0.5,1.1,1.1,1.6,1.6c63.5,63.7,135.6,116.9,214.3,158.2
			c23.1,12.1,50,13.8,73.8,4.8c23-8.8,41.2-27.1,49.9-50.2c16-42.6-3.1-91.2-44.4-113c-62.5-33-120-75.9-169.9-126.2L166.5,342z"/>
		<path id="XMLID_5_" class="st2" d="M303.4,285.1l-30.4-1.3l3.5-82.6c9.4,10.1,19.1,20,29.2,29.5L303.4,285.1z"/>
		<path id="XMLID_4_" class="st3" d="M275.2,233.6l-2.1,50.2l30.4,1.3l2.3-54.4c-4.7-4.5-9.4-9.1-13.9-13.7L275.2,233.6z"/>
		<path id="XMLID_3_" class="st2" d="M210.8,185.5l-30.3-2.1l7.1-100.4c8.6,14.5,17.8,28.6,27.5,42.4L210.8,185.5z"/>
		<path id="XMLID_2_" class="st3" d="M407.6,367.4l-30.3-1.6l3.8-72.4c9.6,6.9,19.4,13.6,29.4,20L407.6,367.4z"/>
	</g>
</g>
</svg>
